<?xml version="1.0" encoding="utf-8"?>
<!-- Generator: Adobe Illustrator 24.2.0, SVG Export Plug-In . SVG Version: 6.00 Build 0)  -->
<svg version="1.1" id="Layer_1" xmlns="http://www.w3.org/2000/svg" xmlns:xlink="http://www.w3.org/1999/xlink" x="0px" y="0px"
	 viewBox="0 0 1000 275" style="enable-background:new 0 0 1000 275;" xml:space="preserve">
<style type="text/css">
	.st0{fill:none;}
	.st1{fill:#2A7DE1;}
	.st2{fill:#0033A1;}
	.st3{fill:#FFFFFF;}
</style>
<g>
	<path class="st0" d="M543.3,196.9c-7.2,0-11.5,5.6-11.5,12.1v0.2c0,6.5,4.7,12.3,11.7,12.3c7.2,0,11.5-5.6,11.5-12.1v-0.2
		C555,202.6,550.2,196.9,543.3,196.9z"/>
	<path class="st0" d="M832,44.3c1.3-1.1,2-2.7,1.9-4.3c0.1-1.6-0.6-3.2-1.8-4.2c-1.5-1.1-3.4-1.7-5.3-1.6h-5.6v11.7h5.4
		C828.4,46,830.4,45.5,832,44.3z"/>
	<polygon class="st0" points="707.2,39.5 702.5,51.2 711.9,51.2 	"/>
	<path class="st0" d="M641.1,196.2c-5.2,0-8.6,3.7-9.6,9.4h19C649.7,200,646.4,196.2,641.1,196.2z"/>
	<path class="st0" d="M361.7,63.1c3.8,0.1,7.5-1.4,10.2-4.1c2.7-2.6,4.2-6.3,4.1-10.1c0.1-3.8-1.4-7.5-4.1-10.1
		c-2.7-2.7-6.4-4.2-10.2-4.1c-3.8-0.1-7.5,1.4-10.2,4.1c-2.7,2.6-4.3,6.3-4.2,10.1c-0.1,3.8,1.4,7.5,4.2,10.1
		C354.2,61.7,357.9,63.2,361.7,63.1z"/>
	<path class="st0" d="M597.3,142.1v0.2c0,3.4,2.8,5.4,6.9,5.4c5.9,0,9.9-3.2,9.9-7.8v-2.2c-2.2-1-5-1.7-8-1.7
		C600.6,136,597.3,138.2,597.3,142.1z"/>
	<path class="st0" d="M399.4,46.1c1.4-1.2,2.2-3,2.1-4.8c0.1-1.8-0.7-3.6-2.1-4.7c-1.7-1.3-3.8-1.9-5.9-1.8h-6.3v13h6
		C395.5,48,397.6,47.4,399.4,46.1z"/>
	<path class="st0" d="M690,120.4c-5.2,0-8.6,3.7-9.6,9.4h19C698.6,124.2,695.3,120.4,690,120.4z"/>
	<path class="st0" d="M367.9,184.8h-9.9v35h9.9c10.4,0,17.5-7,17.5-17.3v-0.2C385.4,192,378.4,184.8,367.9,184.8z"/>
	<path class="st0" d="M430.5,133.6v-0.2c0-6.5-4.7-12.3-11.7-12.3c-7.2,0-11.5,5.6-11.5,12.1v0.2c0,6.5,4.7,12.3,11.7,12.3
		C426.2,145.7,430.5,140.1,430.5,133.6z"/>
	<polygon class="st0" points="542.5,39.5 537.7,51.2 547.2,51.2 	"/>
	<path class="st0" d="M674,41.4L674,41.4c0.1-1.2-0.4-2.4-1.5-3.1c-1.5-0.7-3.1-1-4.7-0.9h-2v7.7h2.1c1.7,0.1,3.3-0.1,4.8-0.8
		C673.6,43.7,674.1,42.5,674,41.4z"/>
	<path class="st0" d="M896.4,196.9c-7.2,0-11.5,5.6-11.5,12.1v0.2c0,6.5,4.7,12.3,11.7,12.3c7.2,0,11.5-5.6,11.5-12.1v-0.2
		C908.1,202.6,903.4,196.9,896.4,196.9z"/>
	<path class="st0" d="M858.4,39.9c0.1-1.6-0.7-3.2-2-4.2c-1.7-1.1-3.7-1.6-5.6-1.5h-4.7v11.3h4.8c2,0.1,3.9-0.4,5.6-1.5
		C857.8,43.1,858.5,41.5,858.4,39.9z"/>
	<path class="st0" d="M885,59.5c3.4,0.1,6.7-1.3,9.1-3.7c2.4-2.4,3.8-5.6,3.7-9c0.1-3.4-1.3-6.7-3.7-9.1c-2.4-2.4-5.7-3.8-9.1-3.7
		c-3.4-0.1-6.7,1.3-9.2,3.7c-2.5,2.4-3.8,5.7-3.8,9.1c-0.1,3.4,1.3,6.7,3.8,9C878.3,58.3,881.6,59.6,885,59.5z"/>
	<path class="st0" d="M841.4,196.9c-7.2,0-11.5,5.6-11.5,12.1v0.2c0,6.5,4.7,12.3,11.7,12.3c7.2,0,11.5-5.6,11.5-12.1v-0.2
		C853.1,202.6,848.4,196.9,841.4,196.9z"/>
	<path class="st1" d="M821.1,47.7h5.5c2.6,0.2,5.1-0.6,7.2-2.1c1.6-1.4,2.5-3.5,2.4-5.7c0.1-2.1-0.8-4.2-2.4-5.6c-2-1.5-4.5-2.2-7-2
		h-8v28.9h2.2V47.7z M821.1,34.2h5.6c1.9-0.1,3.8,0.4,5.3,1.6c1.2,1.1,1.9,2.6,1.8,4.2c0.1,1.7-0.6,3.3-1.9,4.3
		c-1.6,1.1-3.5,1.7-5.5,1.5h-5.4V34.2z"/>
	<path class="st1" d="M855.4,46.8c3.2-0.8,5.5-3.7,5.5-7c0.1-2.1-0.8-4.1-2.5-5.4c-2.1-1.5-4.6-2.2-7.1-2h-7.4v28.9h2.2V47.4h3.9
		c1.4-0.1,2.9,0.2,4.1,1c1.6,1.4,2.9,3.1,3.9,5l5,7.9h2.6l-6.5-10C858.3,49.5,857,48,855.4,46.8z M850.9,45.5h-4.8V34.2h4.7
		c2-0.1,4,0.4,5.6,1.5c1.3,1,2,2.5,2,4.2c0.1,1.6-0.6,3.2-1.9,4.2C854.8,45.1,852.9,45.7,850.9,45.5z"/>
	<path class="st1" d="M895.8,57.3c2.9-2.7,4.5-6.5,4.5-10.5c0.1-4-1.6-7.8-4.5-10.5c-2.9-2.8-6.8-4.4-10.9-4.3
		c-4-0.1-7.9,1.5-10.8,4.3c-2.9,2.7-4.5,6.5-4.4,10.5c-0.1,4,1.5,7.8,4.4,10.5C880.2,63,889.7,63,895.8,57.3z M875.9,37.7
		c2.4-2.4,5.7-3.8,9.2-3.7c3.4-0.1,6.7,1.3,9.1,3.7c2.4,2.4,3.8,5.7,3.7,9.1c0.1,3.4-1.3,6.7-3.7,9c-2.4,2.4-5.7,3.8-9.1,3.7
		c-3.4,0.1-6.7-1.3-9.2-3.7c-2.5-2.4-3.8-5.6-3.8-9C872,43.4,873.4,40.1,875.9,37.7z"/>
	<path class="st1" d="M905.4,69.6c1.6,0,3.2-0.6,4.3-1.8c1.4-1.9,2.1-4.2,1.8-6.6V32.4h-2.2v29.5c0,3.9-1.4,5.8-4.1,5.8
		c-0.4,0-0.9-0.1-1.3-0.2l0.2,2.1C904.5,69.6,905,69.6,905.4,69.6z"/>
	<polygon class="st1" points="937.5,59.4 923.6,59.4 923.6,47.7 936.8,47.7 936.8,45.8 923.6,45.8 923.6,34.2 937.1,34.2 
		937.1,32.4 921.4,32.4 921.4,61.2 937.5,61.2 	"/>
	<path class="st1" d="M950.2,56c-2.4-2.4-3.8-5.7-3.6-9.1c-0.1-3.4,1.2-6.7,3.6-9.1c2.4-2.4,5.6-3.7,9-3.7c3.6,0.1,7.1,1,10.3,2.8
		v-2.4c-3.2-1.5-6.6-2.4-10.2-2.4c-4-0.1-7.8,1.5-10.7,4.3c-2.9,2.7-4.6,6.6-4.5,10.6c-0.1,4,1.5,7.8,4.4,10.5
		c2.9,2.8,6.9,4.3,11,4.2c3.6,0,7.1-1,10.2-2.7v-2.3c-3.1,1.8-6.7,2.8-10.3,3C956.1,59.7,952.7,58.4,950.2,56z"/>
	<polygon class="st1" points="974.3,32.4 974.3,34.2 985.2,34.2 985.2,61.2 987.4,61.2 987.4,34.2 998.2,34.2 998.2,32.4 	"/>
	<polygon class="st1" points="490.8,44.7 499.5,55.5 500.3,55.5 509,44.7 509,63.3 518.7,63.3 518.7,31.3 509.9,31.3 500,43.3 
		490.2,31.3 481.4,31.3 481.4,63.3 490.8,63.3 	"/>
	<path class="st1" d="M535.5,56.8h13.9l2.6,6.5h9.9l-14.1-32h-10.7l-14.2,32h9.9L535.5,56.8z M542.5,39.5l4.7,11.7h-9.4L542.5,39.5z
		"/>
	<rect x="566.2" y="31.3" class="st1" width="9.7" height="32"/>
	<polygon class="st1" points="593.5,45.4 610.1,63.3 618.7,63.3 618.7,31.3 609,31.3 609,49 592.5,31.3 583.9,31.3 583.9,63.3 
		593.5,63.3 	"/>
	<polygon class="st1" points="636.3,50.3 649.6,50.3 649.6,43.9 636.3,43.9 636.3,37.7 649.6,37.7 649.6,31.3 626.7,31.3 
		626.7,63.3 636.3,63.3 	"/>
	<path class="st1" d="M671.7,53c1,1.4,1.8,3,2.5,4.6l2.5,5.7h10.4l-3.2-6.9c-0.7-1.8-1.6-3.4-2.7-5c-0.7-0.9-1.6-1.6-2.6-2.1
		c0.8-0.4,1.6-0.9,2.3-1.5c0.8-0.7,1.5-1.5,2-2.4c0.7-1.3,1-2.7,0.9-4.1c0-1.5-0.4-3-1.1-4.4c-0.8-1.6-2.1-3-3.7-3.9
		c-2-1.1-4.2-1.7-6.5-1.6h-16.4v32h9.7V50.8h1.1c0.9,0,1.8,0.1,2.7,0.4C670.4,51.6,671.2,52.2,671.7,53z M667.8,45.1h-2.1v-7.7h2
		c1.6-0.1,3.3,0.2,4.7,0.9c1,0.7,1.6,1.9,1.5,3.1h0c0.1,1.2-0.4,2.3-1.3,3C671.1,45,669.5,45.2,667.8,45.1z"/>
	<path class="st1" d="M700.2,56.8h13.9l2.6,6.5h9.9l-14.1-32h-10.7l-14.2,32h9.9L700.2,56.8z M707.2,39.5l4.7,11.7h-9.4L707.2,39.5z
		"/>
	<polygon class="st1" points="749.5,43.3 739.6,31.3 730.9,31.3 730.9,63.3 740.2,63.3 740.2,44.7 749,55.5 749.7,55.5 758.4,44.7 
		758.4,63.3 768.1,63.3 768.1,31.3 759.3,31.3 	"/>
	<polygon class="st1" points="800.3,56.8 785.8,56.8 785.8,50 799.3,50 799.3,43.5 785.8,43.5 785.8,37.7 799.9,37.7 799.9,31.3 
		776.2,31.3 776.2,63.3 800.3,63.3 	"/>
	<path class="st1" d="M373.8,60.6c3.2-3,5-7.3,5-11.7c0.1-4.4-1.7-8.7-5-11.7c-3.2-3.2-7.6-4.9-12.1-4.8c-4.5-0.1-8.9,1.6-12.1,4.8
		c-3.2,3-5,7.3-5,11.7c-0.1,4.4,1.7,8.7,5,11.7C356.3,67,367,67,373.8,60.6z M351.5,38.8c2.7-2.7,6.4-4.2,10.2-4.1
		c3.8-0.1,7.5,1.4,10.2,4.1c2.7,2.7,4.2,6.3,4.1,10.1c0.1,3.8-1.4,7.5-4.1,10.1c-2.7,2.7-6.4,4.2-10.2,4.1
		c-3.8,0.1-7.5-1.4-10.2-4.1c-2.7-2.6-4.3-6.3-4.2-10.1C347.2,45.1,348.7,41.4,351.5,38.8z"/>
	<path class="st1" d="M387.3,49.9h6.2c2.9,0.2,5.7-0.6,8-2.3c1.8-1.6,2.8-3.9,2.7-6.3c0.1-2.4-0.9-4.7-2.7-6.2
		c-2.3-1.7-5-2.5-7.8-2.3h-8.9V65h2.5V49.9z M387.3,34.8h6.3c2.1-0.1,4.2,0.5,5.9,1.8c1.4,1.2,2.1,2.9,2.1,4.7
		c0.1,1.9-0.7,3.6-2.1,4.8c-1.8,1.3-4,1.9-6.1,1.7h-6V34.8z"/>
	<polygon class="st1" points="427,62.9 411.5,62.9 411.5,49.8 426.2,49.8 426.2,47.7 411.5,47.7 411.5,34.8 426.6,34.8 426.6,32.7 
		409,32.7 409,65 427,65 	"/>
	<polygon class="st1" points="434.6,36.8 459.1,65 461.2,65 461.2,32.7 458.7,32.7 458.7,60.9 434.2,32.7 432.1,32.7 432.1,65 
		434.6,65 	"/>
	<path class="st2" d="M366.2,145.1c-6.6,0-12.1-2.7-17.3-7l-7.5,9c7,6.2,15.8,9.3,24.6,9.3c12.5,0,21.3-6.5,21.3-18v-0.2
		c0-10.1-6.6-14.3-18.4-17.4c-10-2.6-12.5-3.8-12.5-7.6V113c0-2.8,2.6-5.1,7.5-5.1c4.9,0,9.9,2.2,15.1,5.7l6.6-9.6
		c-5.9-4.7-13.1-7.4-21.5-7.4c-11.9,0-20.3,7-20.3,17.5v0.2c0,11.5,7.5,14.8,19.2,17.7c9.7,2.5,11.7,4.1,11.7,7.4v0.2
		C374.6,143.1,371.4,145.1,366.2,145.1z"/>
	<path class="st2" d="M442.9,133.4v-0.2c0-12.8-10.2-23-23.9-23c-13.8,0-24.1,10.4-24.1,23.1v0.2c0,12.8,10.2,23,23.9,23
		C432.7,156.6,442.9,146.2,442.9,133.4z M407.3,133.4v-0.2c0-6.5,4.3-12.1,11.5-12.1c7,0,11.7,5.7,11.7,12.3v0.2
		c0,6.5-4.3,12.1-11.5,12.1C412,145.7,407.3,140,407.3,133.4z"/>
	<path class="st2" d="M476.8,111.6h-10.2v-1.7c0-3.3,1.7-4.8,4.6-4.8c2.2,0,3.9,0.4,5.7,1.1V95.7c-2.3-0.7-5-1.2-8.9-1.2
		c-4.5,0-7.9,1.2-10.2,3.5c-2.3,2.3-3.6,5.9-3.6,10.8v2.8H449v10.4h5.2v33.6h12.6v-33.6h10V111.6z"/>
	<path class="st2" d="M485.8,143c0,10.3,5.2,13.3,12.9,13.3c4.2,0,7.3-1,9.9-2.6v-10.1c-1.8,1-3.9,1.6-6.2,1.6
		c-2.8,0-4.1-1.4-4.1-4.3v-19h10.4v-10.8h-10.4V99.8h-12.6v11.4h-5.3v10.8h5.3V143z"/>
	<polygon class="st2" points="569.3,111.1 562,138.2 553.6,111 542.7,111 534.3,138.1 527.2,111.1 514.4,111.1 528.1,155.9 
		539.4,155.9 548.1,128.6 556.6,155.9 568,155.9 581.8,111.1 	"/>
	<path class="st2" d="M588.9,114.2l3.1,9.6c4.1-1.5,7.5-2.4,12.3-2.4c6.3,0,9.5,2.9,9.5,8.1v0.7c-3.1-1.1-6.4-1.8-10.9-1.8
		c-10.5,0-17.9,4.5-17.9,14.2v0.2c0,8.8,6.9,13.6,15.2,13.6c6.1,0,10.4-2.2,13.4-5.6v4.8H626v-25.8c0-6-1.5-10.9-4.8-14.2
		c-3.1-3.1-8.1-5-15-5C598.6,110.6,593.8,112.1,588.9,114.2z M614,139.9c0,4.6-4,7.8-9.9,7.8c-4.1,0-6.9-2-6.9-5.4v-0.2
		c0-4,3.3-6.1,8.7-6.1c3.1,0,5.9,0.7,8,1.7V139.9z"/>
	<path class="st2" d="M649.4,120.1v-8.9h-12.6v44.4h12.6v-16.4c0-10.6,5.1-15.7,13.5-15.7h0.7v-13.2C656.1,110,652,114,649.4,120.1z
		"/>
	<path class="st2" d="M691.3,156.6c8,0,14-3.1,18.1-8.3l-7.2-6.4c-3.5,3.2-6.5,4.6-10.8,4.6c-5.6,0-9.6-3-10.9-8.7h30.9
		c0.1-1.2,0.2-2.3,0.2-3.3c0-12.6-6.8-24.1-21.6-24.1c-12.9,0-22,10.4-22,23.1v0.2C668.1,147.2,677.9,156.6,691.3,156.6z M690,120.4
		c5.3,0,8.6,3.8,9.4,9.4h-19C681.4,124.2,684.8,120.4,690,120.4z"/>
	<path class="st2" d="M367.9,173.3h-22.6v58h22.6c18.2,0,30.8-12.7,30.8-29v-0.2C398.8,185.8,386.2,173.3,367.9,173.3z M385.4,202.5
		c0,10.3-7,17.3-17.5,17.3h-9.9v-35h9.9c10.4,0,17.5,7.2,17.5,17.5V202.5z"/>
	<rect x="409" y="170.8" class="st2" width="13.3" height="11.2"/>
	<rect x="409.4" y="186.9" class="st2" width="12.6" height="44.4"/>
	<path class="st2" d="M453,204.5c-4.8-1.7-9-2.8-9-5.3V199c0-1.7,1.6-3.1,4.6-3.1c3.2,0,7.6,1.6,12,4.1l4.8-8.7
		c-4.8-3.2-10.9-5.1-16.6-5.1c-8.9,0-16.2,5.1-16.2,14.1v0.2c0,8.6,7,11.5,13.3,13.3c4.9,1.5,9.2,2.4,9.2,5.1v0.2
		c0,2-1.7,3.3-5.3,3.3c-4.1,0-9.2-1.8-14-5.3l-5.4,8.3c5.9,4.6,12.8,6.7,19.1,6.7c9.6,0,17-4.5,17-14.3v-0.2
		C466.4,209.5,459.2,206.5,453,204.5z"/>
	<path class="st2" d="M497,221.5c-6.9,0-11.3-5.5-11.3-12.3V209c0-6.5,4.5-12.1,10.8-12.1c4.5,0,7.3,1.9,10.1,4.9l7.7-8.3
		c-4.1-4.6-9.4-7.5-17.7-7.5c-13.6,0-23.3,10.4-23.3,23.1v0.2c0,12.7,9.8,23,23.1,23c8.9,0,13.8-3.4,18.1-8.1l-7.4-7.5
		C504.1,219.6,501.2,221.5,497,221.5z"/>
	<path class="st2" d="M543.4,186.1c-13.8,0-24.1,10.4-24.1,23.1v0.2c0,12.8,10.2,23,23.9,23c13.8,0,24.1-10.4,24.1-23.1V209
		C567.4,196.3,557.2,186.1,543.4,186.1z M555,209.4c0,6.5-4.3,12.1-11.5,12.1c-7,0-11.7-5.7-11.7-12.3V209c0-6.5,4.3-12.1,11.5-12.1
		c7,0,11.7,5.7,11.7,12.3V209.4z"/>
	<polygon class="st2" points="593.3,216.7 583.4,186.9 570,186.9 587.5,231.7 599,231.7 616.5,186.9 603.4,186.9 	"/>
	<path class="st2" d="M641.1,186.1c-12.9,0-22,10.4-22,23.1v0.2c0,13.6,9.9,23,23.2,23c8,0,14-3.1,18.1-8.3l-7.2-6.4
		c-3.5,3.2-6.5,4.6-10.8,4.6c-5.6,0-9.6-3-10.9-8.7h30.9c0.1-1.2,0.2-2.3,0.2-3.3C662.7,197.6,655.9,186.1,641.1,186.1z
		 M631.4,205.6c1-5.7,4.4-9.4,9.6-9.4c5.3,0,8.6,3.8,9.4,9.4H631.4z"/>
	<path class="st2" d="M684.6,195.9v-8.9H672v44.4h12.6v-16.4c0-10.6,5.1-15.7,13.5-15.7h0.7v-13.2
		C691.4,185.7,687.2,189.7,684.6,195.9z"/>
	<path class="st2" d="M726.2,217.2L716,186.9h-13.3l17.4,44.6c-1.1,2.2-2.2,2.9-4.4,2.9c-1.7,0-3.7-0.7-5.4-1.7l-4.2,9.1
		c3.2,1.9,6.6,3.1,11.2,3.1c7.5,0,11.2-3.4,14.6-12.4l17.1-45.5h-13.1L726.2,217.2z"/>
	<polygon class="st2" points="819.9,173.3 771.8,173.3 771.8,185.1 789.5,185.1 789.5,231.3 802.2,231.3 802.2,185.1 819.9,185.1 	
		"/>
	<path class="st2" d="M841.6,186.1c-13.8,0-24.1,10.4-24.1,23.1v0.2c0,12.8,10.2,23,23.9,23c13.8,0,24.1-10.4,24.1-23.1V209
		C865.5,196.3,855.3,186.1,841.6,186.1z M853.1,209.4c0,6.5-4.3,12.1-11.5,12.1c-7,0-11.7-5.7-11.7-12.3V209
		c0-6.5,4.3-12.1,11.5-12.1c7,0,11.7,5.7,11.7,12.3V209.4z"/>
	<path class="st2" d="M896.6,186.1c-13.8,0-24.1,10.4-24.1,23.1v0.2c0,12.8,10.2,23,23.9,23c13.8,0,24.1-10.4,24.1-23.1V209
		C920.5,196.3,910.4,186.1,896.6,186.1z M908.1,209.4c0,6.5-4.3,12.1-11.5,12.1c-7,0-11.7-5.7-11.7-12.3V209
		c0-6.5,4.3-12.1,11.5-12.1c7,0,11.7,5.7,11.7,12.3V209.4z"/>
	<rect x="930.2" y="170.8" class="st2" width="12.6" height="60.5"/>
	<g>
		<path class="st1" d="M202.9,50.9C202.9,50.9,202.9,50.9,202.9,50.9c2.2,0,20.7,0.7,20.7,22.3c0,0.7,0.6,1.2,1.2,1.2
			c0.7,0,1.2-0.6,1.2-1.2c0-21.5,18.5-22.3,20.6-22.3c0.5,0,0.8-0.3,1.1-0.7c0.2-0.4,0.2-0.8-0.1-1.2c-0.2-0.4-0.7-0.6-1-0.7
			c-2.2,0-20.7-0.7-20.7-22.3c0-0.7-0.6-1.2-1.2-1.2c-0.7,0-1.2,0.6-1.2,1.2c0,21.6-18.6,22.3-20.6,22.3c-0.3,0-0.6,0.1-0.7,0.3
			c-0.2,0.1-0.3,0.3-0.4,0.4c-0.2,0.4-0.2,0.8,0,1.2C201.9,50.6,202.4,50.9,202.9,50.9z"/>
		<path class="st1" d="M59.5,82.4c-1.1,0-11.2-0.4-11.2-12.2c0-0.7-0.6-1.2-1.2-1.2c-0.7,0-1.2,0.6-1.2,1.2
			c0,11.8-10.1,12.2-11.2,12.2c-0.1,0-0.1,0-0.1,0c-0.7,0.1-1.1,0.6-1.1,1.2c0,0.7,0.6,1.2,1.2,1.2c1.2,0,11.2,0.4,11.2,12.2
			c0,0.7,0.6,1.2,1.2,1.2c0.6,0.1,1.1-0.5,1.1-1.1c0-11.8,10.1-12.2,11.2-12.2h0.1c0.7,0,1.2-0.6,1.2-1.3
			C60.7,83,60.1,82.4,59.5,82.4z"/>
		<path class="st1" d="M165.4,75.7c1.2,0,11.2,0.4,11.2,12.2c0,0.7,0.6,1.2,1.2,1.2c0.6,0.2,1.1-0.4,1.1-1.1
			c0-11.8,10.1-12.2,11.2-12.2h0.1c0.7,0,1.2-0.6,1.2-1.3c0-0.7-0.6-1.2-1.2-1.2c-1.1,0-11.2-0.4-11.2-12.2c0-0.7-0.6-1.2-1.2-1.2
			s-1.2,0.6-1.2,1.2c0,11.8-10.1,12.2-11.2,12.2c-0.1,0-0.1,0-0.1,0c-0.7,0.1-1.1,0.6-1.1,1.2C164.1,75.1,164.7,75.7,165.4,75.7z"/>
		<path class="st2" d="M1.8,1.8v35.5v187.6h61.7l-5.4,8.1l22.8,22.8l22-14.7c4.4,2.4,9,4.2,13.8,5.7l5.2,26.4h16.1H154l5.2-26.4
			c0,0,0,0,0,0c4.8-1.5,9.3-3.3,13.8-5.7l22,14.7l22.8-22.8l0,0l-5.4-8.1h61.7V37.4V1.8H1.8z M142.9,215.5H133
			c-19.7-2.4-35-19.2-35-39.5c0-22,17.9-39.9,39.9-39.9c22,0,39.9,17.9,39.9,39.9C177.8,196.2,162.5,213,142.9,215.5z M264.7,215.5
			h-58.6l-3-4.4c2.4-4.4,4.2-9,5.7-13.8l26.4-5.2v-32.1l-26.4-5.2c-0.4-1.2-0.8-2.4-1.2-3.5c-0.6-1.8-1.3-3.5-2.1-5.2
			c-0.7-1.7-1.6-3.4-2.5-5.1l0,0l14.7-22l0,0L195,96.1l-22,14.7c-4.4-2.4-9-4.2-13.8-5.7v0L154,78.7h-16.1h-16.1l-5.2,26.4
			c-4.8,1.5-9.3,3.3-13.8,5.7l-22-14.7l-22.8,22.8l14.7,22c-2.4,4.4-4.2,9-5.7,13.8l-26.4,5.2V192l26.4,5.2
			c1.5,4.8,3.3,9.3,5.7,13.8l-3,4.4H11.2V46.8H195c0.1-0.3,0.2-0.7,0.4-1l0.5-1l0.6-0.6c0.3-0.4,0.8-0.9,1.5-1.4
			c1.4-1.1,3.2-1.6,4.9-1.6c0,0,4,0,7.5-2.1c4.1-2.4,6-6.7,6-13.1c0-4.6,3.7-8.3,8.3-8.3s8.3,3.7,8.3,8.3c0,6.4,2,10.7,6,13.1
			c3.5,2.1,7.4,2.1,7.6,2.1h0.9l0.8,0.2c2.3,0.6,4.2,1.9,5.3,3.8c0.3,0.5,0.6,1.1,0.8,1.6h10.2V215.5z"/>
	</g>
</g>
</svg>
